<?xml version="1.0" standalone="no"?>
<!DOCTYPE svg PUBLIC "-//W3C//DTD SVG 20010904//EN"
 "http://www.w3.org/TR/2001/REC-SVG-20010904/DTD/svg10.dtd">
<svg version="1.0" xmlns="http://www.w3.org/2000/svg"
 width="256.000000pt" height="256.000000pt" viewBox="0 0 256.000000 256.000000"
 preserveAspectRatio="xMidYMid meet">
<metadata>
Created by potrace 1.16, written by Peter Selinger 2001-2019
</metadata>
<g transform="translate(0.000000,256.000000) scale(0.100000,-0.100000)"
fill="#000000" stroke="none">
<path d="M427 2228 c-57 -15 -103 -66 -117 -130 -8 -38 -10 -213 -8 -599 l3
-546 28 -41 c50 -71 72 -77 314 -80 l211 -3 4 -208 3 -208 28 -41 c56 -80 29
-77 672 -77 644 0 616 -3 672 78 l28 42 0 581 0 581 -28 41 c-50 71 -72 77
-314 80 l-211 3 -4 208 -3 208 -28 41 c-56 80 -31 77 -657 79 -356 1 -569 -2
-593 -9z m1121 -340 l2 -188 -255 0 c-288 0 -331 -6 -380 -55 -49 -50 -55 -92
-55 -390 l0 -265 -197 2 -198 3 -3 530 c-1 292 0 536 3 543 3 10 117 12 542
10 l538 -3 3 -187z m557 -893 l0 -540 -540 0 -540 0 -3 187 -2 187 277 3 c316
3 329 6 380 81 l28 42 3 293 3 292 197 -2 197 -3 0 -540z"/>
</g>
</svg>
